PathFileType	4	(X/Y/Z)	markers_results_mono.trc
DataRate	CameraRate	NumFrames	NumMarkers	Units	OrigDataRate	OrigDataStartFrame	OrigNumFrames
12.500000	12.500000	13	22	m	12.500000	1885	3015
Frame#	Time	Nose			Neck			LShoulder			RShoulder			LElbow			RElbow			LWrist			RWrist			LHip			RHip			LKnee			RKnee			LAnkle			RAnkle			LEye			REye			LThumb			LIndex			LPinky			RThumb			RIndex			RPinky
		X1	Y1	Z1	X2	Y2	Z2	X3	Y3	Z3	X4	Y4	Z4	X5	Y5	Z5	X6	Y6	Z6	X7	Y7	Z7	X8	Y8	Z8	X9	Y9	Z9	X10	Y10	Z10	X11	Y11	Z11	X12	Y12	Z12	X13	Y13	Z13	X14	Y14	Z14	X15	Y15	Z15	X16	Y16	Z16	X17	Y17	Z17	X18	Y18	Z18	X19	Y19	Z19	X20	Y20	Z20	X21	Y21	Z21	X22	Y22	Z22

1885	150.720000	-0.045620	-0.219444	0.131794	-0.058319	-0.279320	0.139721	-0.057441	-0.265063	0.135230	-0.059197	-0.293578	0.144212	-0.040919	-0.180164	0.047852	-0.058815	-0.190676	0.063305	-0.017499	-0.151185	0.055088	0.001486	-0.147771	0.068240	-0.060957	-0.121256	0.053478	-0.056000	-0.129118	0.053205	-0.027335	-0.059466	-0.034875	-0.044139	-0.069659	-0.038479	-0.053917	-0.000527	-0.145852	-0.094624	0.004456	-0.165661	-0.045620	-0.219444	0.131794	-0.045620	-0.219444	0.131794	-0.017499	-0.151185	0.055088	-0.017499	-0.151185	0.055088	-0.017499	-0.151185	0.055088	0.001486	-0.147771	0.068240	0.001486	-0.147771	0.068240	0.001486	-0.147771	0.068240
1886	150.800000	-0.045507	-0.218938	0.131834	-0.058127	-0.278901	0.139649	-0.057230	-0.264681	0.135159	-0.059024	-0.293120	0.144140	-0.040729	-0.179828	0.047837	-0.058737	-0.190355	0.063323	-0.017437	-0.150669	0.055261	0.001392	-0.147325	0.068174	-0.060893	-0.120994	0.053446	-0.055951	-0.128787	0.053149	-0.027278	-0.059096	-0.034816	-0.043896	-0.069449	-0.038351	-0.054303	-0.000305	-0.145759	-0.095075	0.004806	-0.165685	-0.045507	-0.218938	0.131834	-0.045507	-0.218938	0.131834	-0.017437	-0.150669	0.055261	-0.017437	-0.150669	0.055261	-0.017437	-0.150669	0.055261	0.001392	-0.147325	0.068174	0.001392	-0.147325	0.068174	0.001392	-0.147325	0.068174
1887	150.880000	-0.045366	-0.218444	0.131860	-0.057962	-0.278490	0.139552	-0.057033	-0.264318	0.135055	-0.058891	-0.292661	0.144048	-0.040538	-0.179494	0.047800	-0.058690	-0.189973	0.063340	-0.017374	-0.150117	0.055422	0.001293	-0.146861	0.068078	-0.060838	-0.120720	0.053384	-0.055908	-0.128456	0.053076	-0.027228	-0.058772	-0.034802	-0.043649	-0.069238	-0.038258	-0.054696	-0.000041	-0.145801	-0.095590	0.005238	-0.165893	-0.045366	-0.218444	0.131860	-0.045366	-0.218444	0.131860	-0.017374	-0.150117	0.055422	-0.017374	-0.150117	0.055422	-0.017374	-0.150117	0.055422	0.001293	-0.146861	0.068078	0.001293	-0.146861	0.068078	0.001293	-0.146861	0.068078
1888	150.960000	-0.045214	-0.218041	0.131891	-0.057837	-0.278187	0.139475	-0.056870	-0.264067	0.134975	-0.058804	-0.292307	0.143974	-0.040362	-0.179218	0.047773	-0.058662	-0.189645	0.063367	-0.017299	-0.149669	0.055557	0.001229	-0.146449	0.067963	-0.060775	-0.120518	0.053339	-0.055857	-0.128234	0.053014	-0.027145	-0.058536	-0.034791	-0.043422	-0.069075	-0.038206	-0.055007	0.000183	-0.145958	-0.096107	0.005629	-0.166263	-0.045214	-0.218041	0.131891	-0.045214	-0.218041	0.131891	-0.017299	-0.149669	0.055557	-0.017299	-0.149669	0.055557	-0.017299	-0.149669	0.055557	0.001229	-0.146449	0.067963	0.001229	-0.146449	0.067963	0.001229	-0.146449	0.067963
1889	151.040000	-0.045079	-0.217767	0.131940	-0.057739	-0.278028	0.139414	-0.056735	-0.263953	0.134922	-0.058744	-0.292103	0.143906	-0.040202	-0.179043	0.047759	-0.058618	-0.189471	0.063354	-0.017230	-0.149430	0.055654	0.001192	-0.146178	0.067795	-0.060695	-0.120473	0.053311	-0.055794	-0.128195	0.052953	-0.027026	-0.058344	-0.034760	-0.043227	-0.068949	-0.038197	-0.055236	0.000301	-0.146204	-0.096609	0.005878	-0.166719	-0.045079	-0.217767	0.131940	-0.045079	-0.217767	0.131940	-0.017230	-0.149430	0.055654	-0.017230	-0.149430	0.055654	-0.017230	-0.149430	0.055654	0.001192	-0.146178	0.067795	0.001192	-0.146178	0.067795	0.001192	-0.146178	0.067795
1890	151.120000	-0.044954	-0.217552	0.132015	-0.057616	-0.277921	0.139345	-0.056581	-0.263876	0.134868	-0.058651	-0.291966	0.143821	-0.040031	-0.178877	0.047741	-0.058514	-0.189348	0.063290	-0.017170	-0.149247	0.055746	0.001200	-0.145955	0.067594	-0.060587	-0.120483	0.053279	-0.055698	-0.128222	0.052887	-0.026882	-0.058132	-0.034740	-0.043027	-0.068853	-0.038209	-0.055480	0.000319	-0.146549	-0.097156	0.006000	-0.167246	-0.044954	-0.217552	0.132015	-0.044954	-0.217552	0.132015	-0.017170	-0.149247	0.055746	-0.017170	-0.149247	0.055746	-0.017170	-0.149247	0.055746	0.001200	-0.145955	0.067594	0.001200	-0.145955	0.067594	0.001200	-0.145955	0.067594
1891	151.200000	-0.044796	-0.217226	0.132093	-0.057425	-0.277700	0.139266	-0.056366	-0.263655	0.134806	-0.058484	-0.291744	0.143726	-0.039821	-0.178541	0.047721	-0.058354	-0.189064	0.063243	-0.017079	-0.148851	0.055883	0.001300	-0.145560	0.067447	-0.060449	-0.120304	0.053246	-0.055554	-0.128086	0.052832	-0.026712	-0.057849	-0.034765	-0.042782	-0.068772	-0.038219	-0.055787	0.000387	-0.147037	-0.097795	0.006189	-0.167932	-0.044796	-0.217226	0.132093	-0.044796	-0.217226	0.132093	-0.017079	-0.148851	0.055883	-0.017079	-0.148851	0.055883	-0.017079	-0.148851	0.055883	0.001300	-0.145560	0.067447	0.001300	-0.145560	0.067447	0.001300	-0.145560	0.067447
1892	151.280000	-0.044578	-0.216673	0.132123	-0.057191	-0.277291	0.139199	-0.056111	-0.263214	0.134759	-0.058270	-0.291369	0.143640	-0.039574	-0.178004	0.047719	-0.058188	-0.188596	0.063275	-0.016912	-0.148229	0.056078	0.001503	-0.144932	0.067400	-0.060306	-0.119872	0.053226	-0.055392	-0.127751	0.052795	-0.026526	-0.057471	-0.034808	-0.042531	-0.068630	-0.038243	-0.056086	0.000551	-0.147634	-0.098486	0.006525	-0.168810	-0.044578	-0.216673	0.132123	-0.044578	-0.216673	0.132123	-0.016912	-0.148229	0.056078	-0.016912	-0.148229	0.056078	-0.016912	-0.148229	0.056078	0.001503	-0.144932	0.067400	0.001503	-0.144932	0.067400	0.001503	-0.144932	0.067400
1893	151.360000	-0.044287	-0.215931	0.132113	-0.056940	-0.276744	0.139130	-0.055843	-0.262627	0.134719	-0.058036	-0.290861	0.143541	-0.039295	-0.177398	0.047722	-0.057993	-0.188076	0.063331	-0.016666	-0.147585	0.056283	0.001818	-0.144206	0.067393	-0.060156	-0.119374	0.053213	-0.055212	-0.127353	0.052757	-0.026349	-0.056936	-0.034838	-0.042319	-0.068260	-0.038335	-0.056336	0.000655	-0.148244	-0.099175	0.006831	-0.169764	-0.044287	-0.215931	0.132113	-0.044287	-0.215931	0.132113	-0.016666	-0.147585	0.056283	-0.016666	-0.147585	0.056283	-0.016666	-0.147585	0.056283	0.001818	-0.144206	0.067393	0.001818	-0.144206	0.067393	0.001818	-0.144206	0.067393
1894	151.440000	-0.043909	-0.214970	0.132157	-0.056622	-0.275949	0.139001	-0.055512	-0.261822	0.134623	-0.057733	-0.290075	0.143379	-0.038940	-0.176628	0.047653	-0.057631	-0.187374	0.063282	-0.016383	-0.146834	0.056416	0.002278	-0.143332	0.067337	-0.059922	-0.118755	0.053189	-0.054927	-0.126741	0.052708	-0.026157	-0.055995	-0.034887	-0.042037	-0.067399	-0.038452	-0.056638	0.001015	-0.148967	-0.099898	0.007393	-0.170788	-0.043909	-0.214970	0.132157	-0.043909	-0.214970	0.132157	-0.016383	-0.146834	0.056416	-0.016383	-0.146834	0.056416	-0.016383	-0.146834	0.056416	0.002278	-0.143332	0.067337	0.002278	-0.143332	0.067337	0.002278	-0.143332	0.067337
1895	151.520000	-0.043452	-0.213538	0.132251	-0.056211	-0.274559	0.138819	-0.055077	-0.260418	0.134451	-0.057344	-0.288701	0.143186	-0.038474	-0.175205	0.047486	-0.057092	-0.186054	0.063110	-0.016085	-0.145476	0.056474	0.002832	-0.141904	0.067232	-0.059581	-0.117473	0.053149	-0.054537	-0.125434	0.052660	-0.025914	-0.054295	-0.034972	-0.041554	-0.065828	-0.038446	-0.057051	0.002609	-0.150178	-0.100742	0.009233	-0.172265	-0.043452	-0.213538	0.132251	-0.043452	-0.213538	0.132251	-0.016085	-0.145476	0.056474	-0.016085	-0.145476	0.056474	-0.016085	-0.145476	0.056474	0.002832	-0.141904	0.067232	0.002832	-0.141904	0.067232	0.002832	-0.141904	0.067232
1896	151.600000	-0.042961	-0.211540	0.132196	-0.055833	-0.272562	0.138695	-0.054659	-0.258296	0.134326	-0.057008	-0.286829	0.143065	-0.038018	-0.172929	0.047359	-0.056646	-0.184064	0.062980	-0.015743	-0.143370	0.056614	0.003323	-0.139710	0.067121	-0.059312	-0.115314	0.053097	-0.054265	-0.123451	0.052583	-0.025713	-0.051918	-0.035045	-0.041104	-0.063659	-0.038380	-0.057491	0.005311	-0.151972	-0.101788	0.012305	-0.174508	-0.042961	-0.211540	0.132196	-0.042961	-0.211540	0.132196	-0.015743	-0.143370	0.056614	-0.015743	-0.143370	0.056614	-0.015743	-0.143370	0.056614	0.003323	-0.139710	0.067121	0.003323	-0.139710	0.067121	0.003323	-0.139710	0.067121
1897	151.680000	-0.042483	-0.209262	0.132003	-0.055604	-0.270505	0.138646	-0.054385	-0.256024	0.134337	-0.056824	-0.284986	0.142955	-0.037743	-0.170377	0.047400	-0.056455	-0.181900	0.062966	-0.015375	-0.141114	0.056915	0.003773	-0.137176	0.066939	-0.059221	-0.113071	0.053028	-0.054189	-0.121573	0.052414	-0.025676	-0.049410	-0.035144	-0.041119	-0.061182	-0.038684	-0.057983	0.007003	-0.153832	-0.103164	0.014456	-0.177155	-0.042483	-0.209262	0.132003	-0.042483	-0.209262	0.132003	-0.015375	-0.141114	0.056915	-0.015375	-0.141114	0.056915	-0.015375	-0.141114	0.056915	0.003773	-0.137176	0.066939	0.003773	-0.137176	0.066939	0.003773	-0.137176	0.066939
